<?xml version="1.0" standalone="no"?>
<!DOCTYPE svg PUBLIC "-//W3C//DTD SVG 20010904//EN"
 "http://www.w3.org/TR/2001/REC-SVG-20010904/DTD/svg10.dtd">
<svg version="1.0" xmlns="http://www.w3.org/2000/svg"
 width="567.000000pt" height="567.000000pt" viewBox="0 0 567.000000 567.000000"
 preserveAspectRatio="xMidYMid meet">
<metadata>
Created by potrace 1.14, written by Peter Selinger 2001-2017
</metadata>
<g transform="translate(0.000000,567.000000) scale(0.100000,-0.100000)"
fill="#000000" stroke="none">
<path d="M3476 4958 c-11 -12 -51 -83 -89 -157 -73 -142 -105 -193 -157 -251
-17 -19 -41 -53 -52 -75 -34 -66 -98 -156 -142 -199 -23 -23 -80 -60 -127 -84
-47 -23 -99 -57 -115 -75 -44 -48 -114 -148 -114 -163 0 -7 -3 -14 -7 -16 -5
-1 -28 -43 -53 -93 -25 -49 -48 -92 -51 -95 -3 -3 -14 -19 -23 -37 -21 -42
-102 -157 -135 -194 -24 -26 -196 -119 -220 -119 -14 0 -199 -64 -258 -90 -29
-12 -53 -26 -53 -31 0 -4 -9 -11 -21 -14 -11 -4 -71 -56 -132 -117 -62 -60
-122 -113 -133 -118 -12 -5 -93 -8 -180 -7 -154 1 -161 0 -214 -26 -62 -30
-148 -111 -370 -347 -149 -160 -346 -372 -394 -425 -15 -16 -45 -49 -68 -72
l-40 -43 30 0 c16 0 65 7 108 14 44 8 140 22 214 31 321 37 379 47 408 72 60
54 111 69 282 83 68 6 130 16 138 22 18 16 34 57 66 178 15 58 34 118 42 133
8 16 14 35 14 42 0 19 45 106 72 137 19 22 100 67 355 196 26 14 135 60 157
66 17 6 18 13 12 77 -4 40 -12 82 -16 95 -8 20 -5 26 20 39 49 25 191 55 263
55 l68 0 75 -77 c42 -42 108 -114 146 -161 72 -85 96 -95 78 -32 -6 19 -17 89
-25 155 -17 135 -14 151 42 245 31 53 36 71 49 192 8 73 17 142 19 153 2 11
38 54 79 96 78 79 120 146 131 214 25 144 63 242 142 367 12 21 23 39 23 41 0
10 98 166 102 162 2 -3 -2 -53 -9 -112 -11 -93 -11 -127 0 -112 2 2 15 40 29
84 72 223 83 255 89 255 9 0 89 -154 89 -172 0 -29 30 -74 79 -120 50 -47 59
-61 137 -210 49 -95 61 -108 149 -170 78 -55 116 -109 167 -238 32 -79 106
-231 117 -240 3 -3 17 -27 31 -55 14 -27 52 -75 84 -105 81 -75 181 -175 241
-239 28 -30 100 -94 160 -143 61 -49 130 -106 154 -126 25 -20 81 -67 126
-103 123 -100 134 -113 183 -214 13 -27 27 -52 31 -55 3 -3 24 -40 46 -82 22
-43 43 -78 47 -78 19 0 42 184 30 238 -11 47 -25 68 -88 135 -43 44 -183 157
-226 182 -51 29 -254 173 -324 229 -44 36 -105 93 -135 127 -30 35 -67 77 -84
95 -16 18 -41 45 -55 61 -154 175 -162 190 -215 404 -35 139 -102 228 -190
250 -25 6 -45 16 -45 21 0 5 -49 83 -110 175 -60 91 -110 169 -110 174 0 4 -3
9 -8 11 -4 2 -23 28 -42 58 -19 30 -38 60 -43 65 -4 6 -38 53 -75 106 -91 129
-131 179 -146 179 -6 0 -20 -10 -30 -22z"/>
<path d="M3105 3664 c-34 -9 -45 -35 -45 -107 0 -62 3 -71 29 -98 16 -16 36
-29 43 -29 8 0 34 -9 58 -21 33 -16 54 -20 88 -15 42 6 104 -8 152 -34 44 -24
48 -131 4 -138 -10 -2 -24 -10 -31 -19 -7 -9 -48 -20 -105 -29 -166 -26 -172
-28 -176 -48 -6 -31 10 -35 88 -25 116 16 114 16 115 -6 0 -13 5 -18 15 -16
23 7 61 4 104 -7 45 -12 63 -7 71 18 7 21 70 36 107 25 80 -23 109 -39 129
-73 13 -23 17 -38 10 -40 -23 -8 -39 -32 -34 -52 6 -21 5 -21 -173 -15 l-179
7 -41 -30 c-23 -17 -54 -50 -69 -74 -15 -23 -45 -71 -66 -105 -33 -54 -43 -63
-67 -63 -16 0 -40 8 -53 19 -47 36 -70 42 -221 56 -201 20 -262 19 -282 -1 -9
-9 -32 -20 -51 -25 -33 -9 -35 -13 -35 -50 0 -46 -1 -47 -95 -53 -38 -3 -74
-5 -80 -6 -5 0 1 -10 14 -20 20 -18 38 -20 145 -20 l121 0 102 -107 c56 -60
100 -109 99 -110 -1 -1 -30 2 -64 7 -99 16 -177 -13 -254 -95 -103 -110 -149
-304 -115 -490 15 -83 53 -185 68 -185 5 0 9 -6 9 -14 0 -22 109 -135 136
-142 13 -3 24 -10 24 -14 0 -5 21 -15 47 -24 128 -44 262 7 345 130 l43 64 50
-6 c28 -2 140 -9 250 -15 403 -22 421 -22 434 -8 7 8 37 49 68 92 30 43 57 76
60 73 3 -3 7 -29 9 -58 10 -140 67 -285 153 -394 52 -65 175 -164 204 -164 9
0 17 -4 17 -8 0 -18 127 -45 210 -44 165 1 299 78 394 227 90 139 115 291 82
480 -37 205 -167 388 -338 474 -16 8 -28 21 -28 28 0 23 -70 45 -163 51 -83 5
-89 6 -102 32 -22 42 -65 161 -65 178 0 9 -12 29 -27 45 l-28 29 38 30 c55 44
67 75 67 165 0 76 1 78 30 95 53 30 40 41 -65 52 -27 3 -63 11 -78 18 -27 12
-28 16 -23 57 3 25 8 47 11 49 3 3 22 -2 42 -11 51 -23 88 -26 88 -8 0 17 -16
26 -79 43 -39 11 -51 19 -67 49 -10 20 -27 39 -39 42 -17 4 -20 13 -20 59 0
47 4 58 28 79 15 14 42 31 60 38 50 21 72 55 72 113 0 43 -3 50 -27 59 -65 25
-96 -15 -155 -200 -19 -59 -39 -106 -48 -109 -8 -3 -33 -20 -54 -39 -38 -32
-65 -41 -80 -26 -3 4 -43 8 -89 9 -134 5 -264 24 -284 44 -11 9 -24 46 -32 83
-11 57 -18 71 -45 89 -51 35 -85 79 -107 139 -35 96 -89 139 -178 144 -31 2
-65 1 -76 -1z m1018 -1269 c23 -22 32 -76 16 -86 -24 -16 -41 -5 -55 36 -7 22
-14 46 -14 53 0 17 35 15 53 -3z m-108 -159 c15 -42 13 -53 -22 -109 l-24 -39
-40 40 c-25 26 -39 50 -39 66 0 36 29 108 51 128 11 9 19 24 19 35 1 17 24
-33 55 -121z m-102 -212 c8 -41 -15 -111 -53 -159 -38 -49 -56 -57 -46 -22 3
12 6 29 6 39 0 9 13 29 29 44 22 20 31 41 36 76 8 53 20 63 28 22z"/>
<path d="M335 1819 c-2 -3 -7 -179 -11 -392 l-7 -386 134 -3 c74 -2 137 -2
142 0 4 2 7 65 7 140 l0 137 20 -25 c11 -14 20 -28 20 -32 0 -3 16 -35 37 -70
20 -34 45 -80 55 -101 10 -21 30 -42 44 -47 35 -14 281 -13 289 0 4 6 -5 26
-19 45 -14 18 -26 36 -26 39 0 3 -24 47 -53 98 -30 51 -67 118 -83 148 -16 30
-31 57 -34 60 -3 3 -15 24 -28 47 -27 49 -29 44 80 209 37 55 68 106 70 113 2
10 -19 14 -86 15 l-89 3 -55 -86 c-30 -47 -69 -108 -87 -136 -18 -27 -38 -59
-44 -70 -9 -16 -11 -4 -10 60 0 44 0 115 0 157 l-1 77 -131 3 c-72 2 -133 0
-134 -3z"/>
<path d="M1101 1822 c-5 -2 -7 -11 -5 -20 2 -9 1 -184 -4 -389 l-7 -372 135
-3 c74 -2 137 -1 140 0 3 2 5 36 5 75 1 40 2 109 3 155 l2 82 86 0 85 0 -1
-142 c-1 -79 -1 -151 -1 -160 1 -16 14 -18 135 -18 l133 0 8 386 c4 212 5 388
2 390 -3 3 -65 6 -139 6 l-133 0 -3 -151 -3 -151 -85 0 -85 0 3 153 2 152
-132 5 c-73 3 -136 4 -141 2z"/>
<path d="M1888 1433 c-2 -214 -3 -389 -2 -391 1 -1 164 -5 363 -9 l362 -6 -1
-311 -2 -311 136 -3 136 -3 0 134 c0 74 3 214 6 313 l7 179 98 -3 97 -4 4 69
c2 37 2 74 0 81 -3 9 -63 12 -256 12 -139 0 -349 3 -466 7 l-212 6 7 314 7
313 -141 0 -140 0 -3 -387z"/>
<path d="M5135 1229 c-2 -3 -5 -169 -7 -370 -3 -347 -2 -366 17 -396 31 -52
67 -63 203 -63 l120 0 -2 63 -1 62 -45 3 c-77 6 -74 -14 -66 364 4 186 4 338
-1 339 -41 4 -216 3 -218 -2z"/>
<path d="M3017 768 c-4 -99 -7 -221 -7 -270 l0 -88 110 0 110 0 0 81 0 82 43
-83 42 -84 115 -1 c63 -1 123 1 132 4 14 5 5 24 -56 114 l-73 107 33 35 c65
69 52 190 -25 240 -53 35 -109 44 -272 45 l-146 0 -6 -182z m247 36 c27 -27
13 -94 -19 -94 -11 0 -15 13 -15 55 0 57 8 66 34 39z"/>
<path d="M3828 933 c-40 -25 -71 -92 -170 -373 -11 -30 -29 -75 -40 -99 -24
-54 -20 -57 73 -60 59 -2 70 1 75 16 24 75 22 73 84 73 l58 0 14 -42 15 -43
121 -3 c67 -1 122 -1 122 2 0 2 -13 40 -29 83 -45 122 -102 294 -114 341 -6
23 -25 59 -42 79 -27 32 -38 36 -86 40 -40 3 -61 -1 -81 -14z m40 -288 c12
-25 1 -42 -18 -30 -12 7 -13 55 -2 55 5 0 14 -11 20 -25z"/>
<path d="M4090 938 c0 -7 5 -29 11 -48 17 -59 89 -302 104 -353 18 -64 53
-114 89 -127 36 -13 97 -13 129 -1 35 13 76 71 92 128 8 26 25 84 38 128 37
122 76 252 79 265 2 9 -18 13 -72 13 l-75 0 -39 -132 c-22 -72 -42 -128 -46
-124 -4 4 -17 46 -30 93 -12 47 -28 103 -34 125 l-11 40 -117 3 c-91 2 -118 0
-118 -10z"/>
<path d="M4719 925 c-43 -23 -51 -58 -57 -232 -9 -284 -1 -293 246 -293 183 0
162 -11 166 85 l1 40 -92 3 -93 3 0 34 0 34 78 3 77 3 3 59 c2 35 -1 62 -8 66
-6 4 -32 5 -58 4 -76 -5 -94 3 -90 40 l3 31 70 1 c39 1 78 2 88 3 14 1 17 11
17 66 l0 65 -162 0 c-120 -1 -170 -5 -189 -15z"/>
</g>
</svg>
