<?xml version="1.0" encoding="utf-8"?>
<svg version="1.1" xmlns="http://www.w3.org/2000/svg" xmlns:xlink="http://www.w3.org/1999/xlink" x="0px" y="0px" viewBox="0 0 567 567" style="enable-background:new 0 0 567 567;" xml:space="preserve">
<style type="text/css">
	.st0{fill:none;}
	.st1{enable-background:new    ;}
	.st2{fill:#FFFFFF;}
</style>
<g transform="translate(0.000000,567.000000) scale(0.100000,-0.100000)">
	<path d="M3476,4958c-11-12-51-83-89-157c-73-142-105-193-157-251c-17-19-41-53-52-75c-34-66-98-156-142-199c-23-23-80-60-127-84
		c-47-23-99-57-115-75c-44-48-114-148-114-163c0-7-3-14-7-16c-5-1-28-43-53-93c-25-49-48-92-51-95s-14-19-23-37
		c-21-42-102-157-135-194c-24-26-196-119-220-119c-14,0-199-64-258-90c-29-12-53-26-53-31c0-4-9-11-21-14c-11-4-71-56-132-117
		c-62-60-122-113-133-118c-12-5-93-8-180-7c-154,1-161,0-214-26c-62-30-148-111-370-347c-149-160-346-372-394-425
		c-15-16-45-49-68-72l-40-43h30c16,0,65,7,108,14c44,8,140,22,214,31c321,37,379,47,408,72c60,54,111,69,282,83c68,6,130,16,138,22
		c18,16,34,57,66,178c15,58,34,118,42,133c8,16,14,35,14,42c0,19,45,106,72,137c19,22,100,67,355,196c26,14,135,60,157,66
		c17,6,18,13,12,77c-4,40-12,82-16,95c-8,20-5,26,20,39c49,25,191,55,263,55h68l75-77c42-42,108-114,146-161c72-85,96-95,78-32
		c-6,19-17,89-25,155c-17,135-14,151,42,245c31,53,36,71,49,192c8,73,17,142,19,153s38,54,79,96c78,79,120,146,131,214
		c25,144,63,242,142,367c12,21,23,39,23,41c0,10,98,166,102,162c2-3-2-53-9-112c-11-93-11-127,0-112c2,2,15,40,29,84
		c72,223,83,255,89,255c9,0,89-154,89-172c0-29,30-74,79-120c50-47,59-61,137-210c49-95,61-108,149-170c78-55,116-109,167-238
		c32-79,106-231,117-240c3-3,17-27,31-55c14-27,52-75,84-105c81-75,181-175,241-239c28-30,100-94,160-143c61-49,130-106,154-126
		c25-20,81-67,126-103c123-100,134-113,183-214c13-27,27-52,31-55c3-3,24-40,46-82c22-43,43-78,47-78c19,0,42,184,30,238
		c-11,47-25,68-88,135c-43,44-183,157-226,182c-51,29-254,173-324,229c-44,36-105,93-135,127c-30,35-67,77-84,95c-16,18-41,45-55,61
		c-154,175-162,190-215,404c-35,139-102,228-190,250c-25,6-45,16-45,21s-49,83-110,175c-60,91-110,169-110,174c0,4-3,9-8,11
		c-4,2-23,28-42,58s-38,60-43,65c-4,6-38,53-75,106c-91,129-131,179-146,179C3500,4980,3486,4970,3476,4958z"/>
	<path d="M3105,3664c-34-9-45-35-45-107c0-62,3-71,29-98c16-16,36-29,43-29c8,0,34-9,58-21c33-16,54-20,88-15c42,6,104-8,152-34
		c44-24,48-131,4-138c-10-2-24-10-31-19s-48-20-105-29c-166-26-172-28-176-48c-6-31,10-35,88-25c116,16,114,16,115-6
		c0-13,5-18,15-16c23,7,61,4,104-7c45-12,63-7,71,18c7,21,70,36,107,25c80-23,109-39,129-73c13-23,17-38,10-40c-23-8-39-32-34-52
		c6-21,5-21-173-15l-179,7l-41-30c-23-17-54-50-69-74c-15-23-45-71-66-105c-33-54-43-63-67-63c-16,0-40,8-53,19c-47,36-70,42-221,56
		c-201,20-262,19-282-1c-9-9-32-20-51-25c-33-9-35-13-35-50c0-46-1-47-95-53c-38-3-74-5-80-6c-5,0,1-10,14-20c20-18,38-20,145-20
		h121l102-107c56-60,100-109,99-110s-30,2-64,7c-99,16-177-13-254-95c-103-110-149-304-115-490c15-83,53-185,68-185c5,0,9-6,9-14
		c0-22,109-135,136-142c13-3,24-10,24-14c0-5,21-15,47-24c128-44,262,7,345,130l43,64l50-6c28-2,140-9,250-15c403-22,421-22,434-8
		c7,8,37,49,68,92c30,43,57,76,60,73s7-29,9-58c10-140,67-285,153-394c52-65,175-164,204-164c9,0,17-4,17-8c0-18,127-45,210-44
		c165,1,299,78,394,227c90,139,115,291,82,480c-37,205-167,388-338,474c-16,8-28,21-28,28c0,23-70,45-163,51c-83,5-89,6-102,32
		c-22,42-65,161-65,178c0,9-12,29-27,45l-28,29l38,30c55,44,67,75,67,165c0,76,1,78,30,95c53,30,40,41-65,52c-27,3-63,11-78,18
		c-27,12-28,16-23,57c3,25,8,47,11,49c3,3,22-2,42-11c51-23,88-26,88-8c0,17-16,26-79,43c-39,11-51,19-67,49c-10,20-27,39-39,42
		c-17,4-20,13-20,59c0,47,4,58,28,79c15,14,42,31,60,38c50,21,72,55,72,113c0,43-3,50-27,59c-65,25-96-15-155-200
		c-19-59-39-106-48-109c-8-3-33-20-54-39c-38-32-65-41-80-26c-3,4-43,8-89,9c-134,5-264,24-284,44c-11,9-24,46-32,83
		c-11,57-18,71-45,89c-51,35-85,79-107,139c-35,96-89,139-178,144C3150,3667,3116,3666,3105,3664z M4123,2395c23-22,32-76,16-86
		c-24-16-41-5-55,36c-7,22-14,46-14,53C4070,2415,4105,2413,4123,2395z M4015,2236c15-42,13-53-22-109l-24-39l-40,40
		c-25,26-39,50-39,66c0,36,29,108,51,128c11,9,19,24,19,35C3961,2374,3984,2324,4015,2236z M3913,2024c8-41-15-111-53-159
		c-38-49-56-57-46-22c3,12,6,29,6,39c0,9,13,29,29,44c22,20,31,41,36,76C3893,2055,3905,2065,3913,2024z"/>
	<path d="M335,1819c-2-3-7-179-11-392l-7-386l134-3c74-2,137-2,142,0c4,2,7,65,7,140v137l20-25c11-14,20-28,20-32c0-3,16-35,37-70
		c20-34,45-80,55-101s30-42,44-47c35-14,281-13,289,0c4,6-5,26-19,45c-14,18-26,36-26,39s-24,47-53,98c-30,51-67,118-83,148
		s-31,57-34,60s-15,24-28,47c-27,49-29,44,80,209c37,55,68,106,70,113c2,10-19,14-86,15l-89,3l-55-86c-30-47-69-108-87-136
		c-18-27-38-59-44-70c-9-16-11-4-10,60c0,44,0,115,0,157l-1,77l-131,3C397,1824,336,1822,335,1819z"/>
	<path d="M1101,1822c-5-2-7-11-5-20s1-184-4-389l-7-372l135-3c74-2,137-1,140,0c3,2,5,36,5,75c1,40,2,109,3,155l2,82h86h85l-1-142
		c-1-79-1-151-1-160c1-16,14-18,135-18h133l8,386c4,212,5,388,2,390c-3,3-65,6-139,6h-133l-3-151l-3-151h-85h-85l3,153l2,152l-132,5
		C1169,1823,1106,1824,1101,1822z"/>
	<path d="M1888,1433c-2-214-3-389-2-391c1-1,164-5,363-9l362-6l-1-311l-2-311l136-3l136-3v134c0,74,3,214,6,313l7,179l98-3l97-4
		l4,69c2,37,2,74,0,81c-3,9-63,12-256,12c-139,0-349,3-466,7l-212,6l7,314l7,313h-141h-140L1888,1433z"/>
	<path d="M5135,1229c-2-3-5-169-7-370c-3-347-2-366,17-396c31-52,67-63,203-63h120l-2,63l-1,62l-45,3c-77,6-74-14-66,364
		c4,186,4,338-1,339C5312,1235,5137,1234,5135,1229z"/>
	<path d="M3017,768c-4-99-7-221-7-270v-88h110h110v81v82l43-83l42-84l115-1c63-1,123,1,132,4c14,5,5,24-56,114l-73,107l33,35
		c65,69,52,190-25,240c-53,35-109,44-272,45h-146L3017,768z M3264,804c27-27,13-94-19-94c-11,0-15,13-15,55
		C3230,822,3238,831,3264,804z"/>
	<path d="M3828,933c-40-25-71-92-170-373c-11-30-29-75-40-99c-24-54-20-57,73-60c59-2,70,1,75,16c24,75,22,73,84,73h58l14-42l15-43
		l121-3c67-1,122-1,122,2c0,2-13,40-29,83c-45,122-102,294-114,341c-6,23-25,59-42,79c-27,32-38,36-86,40
		C3869,950,3848,946,3828,933z M3868,645c12-25,1-42-18-30c-12,7-13,55-2,55C3853,670,3862,659,3868,645z"/>
	<path d="M4090,938c0-7,5-29,11-48c17-59,89-302,104-353c18-64,53-114,89-127s97-13,129-1c35,13,76,71,92,128c8,26,25,84,38,128
		c37,122,76,252,79,265c2,9-18,13-72,13h-75l-39-132c-22-72-42-128-46-124s-17,46-30,93c-12,47-28,103-34,125l-11,40l-117,3
		C4117,950,4090,948,4090,938z"/>
	<path d="M4719,925c-43-23-51-58-57-232c-9-284-1-293,246-293c183,0,162-11,166,85l1,40l-92,3l-93,3v34v34l78,3l77,3l3,59
		c2,35-1,62-8,66c-6,4-32,5-58,4c-76-5-94,3-90,40l3,31l70,1c39,1,78,2,88,3c14,1,17,11,17,66v65h-162C4788,939,4738,935,4719,925z"
		/>
</g>
<rect x="31.7" y="473" class="st0" width="217.3" height="53.9"/>
<g class="st1">
	<path class="st2" d="M34.4,523.6l7.8-46h11.8l9.2,24.5l9.1-24.5h11.8l7.8,46H80.2l-4-26.5l-10.9,26.5h-4.8l-10.3-26.5l-4,26.5H34.4
		z"/>
	<path class="st2" d="M97.6,500.6c0-3.4,0.6-6.6,1.9-9.5c1.3-2.9,3-5.5,5.2-7.7c2.2-2.2,4.9-3.9,8-5.2c3.1-1.2,6.5-1.9,10.3-1.9
		c3.7,0,7.1,0.6,10.2,1.9c3.1,1.2,5.8,3,8.1,5.2c2.3,2.2,4,4.8,5.3,7.7c1.3,2.9,1.9,6.1,1.9,9.5s-0.6,6.6-1.9,9.5
		c-1.3,2.9-3,5.5-5.3,7.7c-2.3,2.2-5,3.9-8.1,5.2c-3.1,1.2-6.5,1.9-10.2,1.9c-3.7,0-7.2-0.6-10.3-1.9c-3.1-1.2-5.8-3-8-5.2
		c-2.2-2.2-4-4.8-5.2-7.7C98.2,507.2,97.6,504,97.6,500.6z M110.1,500.6c0,1.8,0.3,3.5,1,5.1c0.7,1.5,1.6,2.9,2.8,4
		c1.2,1.1,2.6,2,4.1,2.7c1.6,0.6,3.2,0.9,5,0.9c1.7,0,3.4-0.3,5-0.9c1.6-0.6,2.9-1.5,4.1-2.7c1.2-1.1,2.1-2.5,2.8-4
		c0.7-1.5,1-3.2,1-5.1s-0.3-3.5-1-5.1c-0.7-1.5-1.6-2.9-2.8-4c-1.2-1.1-2.6-2-4.1-2.7c-1.6-0.6-3.2-0.9-5-0.9c-1.7,0-3.4,0.3-5,0.9
		c-1.6,0.6-2.9,1.5-4.1,2.7c-1.2,1.1-2.1,2.5-2.8,4C110.4,497.1,110.1,498.8,110.1,500.6z"/>
	<path class="st2" d="M173,487.8v35.9h-12v-35.9h-9.8v-10.1h31.6v10.1H173z"/>
	<path class="st2" d="M185.7,500.6c0-3.4,0.6-6.6,1.9-9.5c1.3-2.9,3-5.5,5.2-7.7c2.2-2.2,4.9-3.9,8-5.2c3.1-1.2,6.5-1.9,10.3-1.9
		c3.7,0,7.1,0.6,10.2,1.9c3.1,1.2,5.8,3,8.1,5.2c2.3,2.2,4,4.8,5.3,7.7c1.3,2.9,1.9,6.1,1.9,9.5s-0.6,6.6-1.9,9.5
		c-1.3,2.9-3,5.5-5.3,7.7c-2.3,2.2-5,3.9-8.1,5.2c-3.1,1.2-6.5,1.9-10.2,1.9c-3.7,0-7.2-0.6-10.3-1.9c-3.1-1.2-5.8-3-8-5.2
		c-2.2-2.2-4-4.8-5.2-7.7C186.3,507.2,185.7,504,185.7,500.6z M198.2,500.6c0,1.8,0.3,3.5,1,5.1c0.7,1.5,1.6,2.9,2.8,4
		c1.2,1.1,2.6,2,4.1,2.7c1.6,0.6,3.2,0.9,5,0.9c1.7,0,3.4-0.3,5-0.9c1.6-0.6,2.9-1.5,4.1-2.7c1.2-1.1,2.1-2.5,2.8-4
		c0.7-1.5,1-3.2,1-5.1s-0.3-3.5-1-5.1c-0.7-1.5-1.6-2.9-2.8-4c-1.2-1.1-2.6-2-4.1-2.7c-1.6-0.6-3.2-0.9-5-0.9c-1.7,0-3.4,0.3-5,0.9
		c-1.6,0.6-2.9,1.5-4.1,2.7c-1.2,1.1-2.1,2.5-2.8,4C198.5,497.1,198.2,498.8,198.2,500.6z"/>
</g>
</svg>
